Patient4_TMGait_0pt4_03_right_38_GRF.mot
version=1
nRows=38
nColumns=19
inDegrees=no
endheader
time	F1x	F1y	F1z	M1x	M1y	M1z	F2x	F2y	F2z	M2x	M2y	M2z	EC1x	EC1y	EC1z	EC2x	EC2y	EC2z
49.73	-19.4628	757.3111	66.6155	-251.7037	-78.0323	837.5305	0.4473	2.5768	4.0304	0.061623	-1.8546	-0.71281	-0.0592	0.0182	-0.0073	-0.0462	0.0165	0.9585
49.7432	-13.0205	752.9931	66.1996	-250.6095	-75.3809	828.9343	0.0084426	2.1358	2.6323	0.19716	-1.0779	0.060124	-0.0592	0.0182	-0.0073	-0.0462	0.0165	0.9585
49.7564	-7.0362	748.1872	65.3733	-249.3918	-72.281	819.4198	-0.30182	1.827	1.4403	0.33494	-0.42639	0.76223	-0.0592	0.0182	-0.0073	-0.0462	0.0165	0.9585
49.7696	-1.8474	743.7376	64.2198	-248.3048	-68.9368	810.0952	-0.49111	1.645	0.52295	0.46115	0.073055	1.3379	-0.0592	0.0182	-0.0073	-0.0462	0.0165	0.9585
49.7829	2.4568	740.5367	62.9079	-247.6209	-65.5796	802.0718	-0.60046	1.5677	-0.12078	0.56928	0.43084	1.7866	-0.0592	0.0182	-0.0073	-0.0462	0.0165	0.9585
49.7961	5.9882	739.2427	61.5848	-247.5427	-62.37	796.1296	-0.65141	1.5407	-0.53385	0.64921	0.67626	2.0846	-0.0592	0.0182	-0.0073	-0.0462	0.0165	0.9585
49.8093	8.9392	740.1291	60.4204	-248.1472	-59.4574	792.5918	-0.67775	1.5311	-0.76954	0.69609	0.84404	2.2483	-0.0592	0.0182	-0.0073	-0.0462	0.0165	0.9585
49.8225	11.5544	743.1079	59.5058	-249.3888	-56.8951	791.3426	-0.6908	1.4774	-0.88765	0.69586	0.965	2.2505	-0.0592	0.0182	-0.0073	-0.0462	0.0165	0.9585
49.8357	14.0577	747.8056	58.9238	-251.1282	-54.7194	791.9516	-0.71697	1.2985	-0.9328	0.62641	1.0618	2.038	-0.0592	0.0182	-0.0073	-0.0462	0.0165	0.9585
49.8489	16.6328	753.6699	58.6871	-253.171	-52.903	793.8127	-0.7694	0.9156	-0.94468	0.46317	1.1541	1.5532	-0.0592	0.0182	-0.0073	-0.0462	0.0165	0.9585
49.8621	19.3802	760.0638	58.8078	-255.2926	-51.4306	796.253	-0.83028	0.23545	-0.94706	0.17589	1.2423	0.70442	-0.0592	0.0182	-0.0073	-0.0462	0.0165	0.9585
49.8754	22.3416	766.3414	59.2507	-257.2653	-50.258	798.611	-0.90065	-0.82833	-0.9479	-0.26474	1.3213	-0.60171	-0.0592	0.0182	-0.0073	-0.0462	0.0165	0.9585
49.8886	25.5108	771.8697	59.9797	-258.8684	-49.3526	800.2558	-0.93683	-2.3317	-0.93944	-0.87709	1.3626	-2.4436	-0.0592	0.0182	-0.0073	-0.0462	0.0165	0.9585
49.9018	28.8319	776.0717	60.9286	-259.9034	-48.6686	800.6324	-0.89024	-4.2342	-0.90791	-1.6445	1.3283	-4.7664	-0.0592	0.0182	-0.0073	-0.0462	0.0165	0.9585
49.915	32.2087	778.4497	62.043	-260.2041	-48.1855	799.2815	-0.69124	-6.3934	-0.82305	-2.5054	1.1544	-7.3954	-0.0592	0.0182	-0.0073	-0.0462	0.0165	0.9585
49.9282	35.5059	778.6268	63.259	-259.6507	-47.8838	795.8933	-0.26389	-8.4541	-0.63896	-3.3177	0.75543	-9.9009	-0.0592	0.0182	-0.0073	-0.0462	0.0165	0.9585
49.9414	38.5746	776.344	64.5038	-258.1657	-47.745	790.2958	0.48193	-9.769	-0.29523	-3.8265	0.028456	-11.5044	-0.0592	0.0182	-0.0073	-0.0462	0.0165	0.9585
49.9546	41.2383	771.436	65.7053	-255.6995	-47.7605	782.4201	1.6299	-9.359	0.27843	-3.6431	-1.1356	-11.0289	-0.0592	0.0182	-0.0073	-0.0462	0.0165	0.9585
49.9679	43.3702	763.8683	66.8078	-252.2419	-47.9246	772.3148	3.2092	-5.8341	1.1529	-2.2191	-2.8228	-6.789	-0.0592	0.0182	-0.0073	-0.0462	0.0165	0.9585
49.9811	44.8878	753.7629	67.7657	-247.8356	-48.2197	760.1687	5.2057	2.5703	2.3686	1.1405	-5.0566	3.3419	-0.0592	0.0182	-0.0073	-0.0462	0.0165	0.9585
49.9943	45.7628	741.3464	68.5266	-242.5641	-48.6017	746.2445	7.4467	17.8514	3.9057	7.219	-7.7234	21.7829	-0.0592	0.0182	-0.0073	-0.0462	0.0165	0.9585
50.0075	46.0326	726.791	68.9931	-236.5066	-48.9588	730.6964	9.5595	41.9058	5.6349	16.7578	-10.5012	50.8291	-0.0592	0.0182	-0.0073	-0.0462	0.0165	0.9585
50.0207	45.7894	710.0735	69.027	-229.6943	-49.1241	713.4687	10.8918	75.9857	7.2568	30.235	-12.7581	92.0013	-0.0592	0.0182	-0.0073	-0.0462	0.0165	0.9585
50.0339	45.1505	690.8872	68.4368	-222.0796	-48.8717	694.1947	10.4296	119.7846	8.2407	47.5071	-13.4499	144.9467	-0.0592	0.0182	-0.0073	-0.0462	0.0165	0.9585
50.0471	44.2155	668.7123	67.0429	-213.548	-47.9925	672.2791	7.1017	170.5338	7.8429	67.4509	-11.2943	206.3638	-0.0592	0.0182	-0.0073	-0.0462	0.0165	0.9585
50.0604	43.0801	643.0032	64.685	-203.9855	-46.2986	647.0631	0.97372	223.1065	5.5089	88.0041	-5.6978	270.1152	-0.0592	0.0182	-0.0073	-0.0462	0.0165	0.9585
50.0736	41.8288	613.4875	61.3588	-193.3684	-43.7527	618.1457	-6.7688	271.3321	1.325	106.7473	2.6781	328.6952	-0.0592	0.0182	-0.0073	-0.0462	0.0165	0.9585
50.0868	40.5483	580.285	57.2107	-181.7914	-40.4572	585.5055	-14.7733	311.3834	-4.1233	122.1979	12.5819	377.339	-0.0592	0.0182	-0.0073	-0.0462	0.0165	0.9585
50.1	39.2737	543.7365	52.5399	-169.3983	-36.6693	549.3705	-22.1462	343.0708	-10.0575	134.3006	22.7459	415.7394	-0.0592	0.0182	-0.0073	-0.0462	0.0165	0.9585
50.1132	37.9681	504.2255	47.6224	-156.3215	-32.6491	510.0704	-28.3874	368.2619	-15.6836	143.8182	32.0638	446.1271	-0.0592	0.0182	-0.0073	-0.0462	0.0165	0.9585
50.1264	36.5112	462.1785	42.6284	-142.6867	-28.58	468.0427	-33.3389	389.538	-20.4919	151.7839	39.8829	471.6128	-0.0592	0.0182	-0.0073	-0.0462	0.0165	0.9585
50.1396	34.7411	418.1164	37.5871	-128.6376	-24.5302	423.852	-36.9565	409.5049	-24.2479	159.2202	45.933	495.2879	-0.0592	0.0182	-0.0073	-0.0462	0.0165	0.9585
50.1529	32.4788	372.6296	32.5368	-114.3275	-20.5849	378.1389	-39.2685	430.4698	-27.1492	167.0003	50.4681	519.8484	-0.0592	0.0182	-0.0073	-0.0462	0.0165	0.9585
50.1661	29.5622	326.3896	27.5526	-99.9256	-16.8679	331.6248	-40.4818	454.2444	-29.7099	175.7728	54.1652	547.4307	-0.0592	0.0182	-0.0073	-0.0462	0.0165	0.9585
50.1793	25.8819	280.1716	22.7842	-85.6287	-13.5603	285.1142	-40.8525	481.8781	-32.5744	185.8891	57.8576	579.2646	-0.0592	0.0182	-0.0073	-0.0462	0.0165	0.9585
50.1925	21.4426	234.9434	18.3951	-71.6966	-10.8247	239.5785	-40.7101	513.702	-36.2452	197.4279	62.2304	615.7462	-0.0592	0.0182	-0.0073	-0.0462	0.0165	0.9585
50.2057	16.4152	191.8676	14.5252	-58.4587	-8.752	196.1638	-40.3822	549.3768	-40.8805	210.2366	67.5752	656.4595	-0.0592	0.0182	-0.0073	-0.0462	0.0165	0.9585
50.2189	11.1426	152.1545	11.2469	-46.2731	-7.3114	156.0637	-40.1402	588.0217	-46.3446	223.9781	73.8224	700.3622	-0.0592	0.0182	-0.0073	-0.0462	0.0165	0.9585
